solid OpenSCAD_Model
  facet normal -1 0 0
    outer loop
      vertex -5 -4.5 0
      vertex -5 8.5 10
      vertex -5 8.5 0
    endloop
  endfacet
  facet normal -1 -0 0
    outer loop
      vertex -5 8.5 10
      vertex -5 -4.5 0
      vertex -5 -4.5 10
    endloop
  endfacet
  facet normal -0 0 1
    outer loop
      vertex -5 8.5 10
      vertex -4.94975 -4.5 10
      vertex -4.94975 8.5 10
    endloop
  endfacet
  facet normal 0 0 1
    outer loop
      vertex -4.94975 -4.5 10
      vertex -5 8.5 10
      vertex -5 -4.5 10
    endloop
  endfacet
  facet normal -0 0 1
    outer loop
      vertex 4.94975 8.5 10
      vertex 5 -4.5 10
      vertex 5 8.5 10
    endloop
  endfacet
  facet normal 0 0 1
    outer loop
      vertex 5 -4.5 10
      vertex 4.94975 8.5 10
      vertex 4.94975 -4.5 10
    endloop
  endfacet
  facet normal 1 -0 0
    outer loop
      vertex 5 -4.5 10
      vertex 5 8.5 0
      vertex 5 8.5 10
    endloop
  endfacet
  facet normal 1 0 0
    outer loop
      vertex 5 8.5 0
      vertex 5 -4.5 10
      vertex 5 -4.5 0
    endloop
  endfacet
  facet normal 0 1 0
    outer loop
      vertex 3 8.5 6.5
      vertex 4.94975 8.5 10
      vertex 5 8.5 10
    endloop
  endfacet
  facet normal 0 1 0
    outer loop
      vertex 4.94975 8.5 10
      vertex -1 8.5 8
      vertex -4.94975 8.5 10
    endloop
  endfacet
  facet normal 0 1 -0
    outer loop
      vertex -4 8.5 8
      vertex -4.94975 8.5 10
      vertex -1 8.5 8
    endloop
  endfacet
  facet normal 0 1 0
    outer loop
      vertex 4.94975 8.5 10
      vertex 3 8.5 6.5
      vertex -1 8.5 8
    endloop
  endfacet
  facet normal 0 1 -0
    outer loop
      vertex 5 8.5 0
      vertex 3 8.5 6.5
      vertex 5 8.5 10
    endloop
  endfacet
  facet normal 0 1 0
    outer loop
      vertex 3 8.5 0.5
      vertex 5 8.5 0
      vertex 0 8.5 0.5
    endloop
  endfacet
  facet normal 0 1 0
    outer loop
      vertex 3 8.5 6.5
      vertex 5 8.5 0
      vertex 3 8.5 0.5
    endloop
  endfacet
  facet normal 0 1 0
    outer loop
      vertex 0 8.5 14.9497
      vertex 4.94975 8.5 10
      vertex -4.94975 8.5 10
    endloop
  endfacet
  facet normal 0 1 0
    outer loop
      vertex -4.94975 8.5 10
      vertex -4 8.5 8
      vertex -5 8.5 10
    endloop
  endfacet
  facet normal 0 1 -0
    outer loop
      vertex -4 8.5 5
      vertex -5 8.5 10
      vertex -4 8.5 8
    endloop
  endfacet
  facet normal 0 1 0
    outer loop
      vertex -4 8.5 5
      vertex -5 8.5 0
      vertex -5 8.5 10
    endloop
  endfacet
  facet normal 0 1 0
    outer loop
      vertex 0 8.5 0.5
      vertex -5 8.5 0
      vertex -4 8.5 5
    endloop
  endfacet
  facet normal 0 1 0
    outer loop
      vertex -5 8.5 0
      vertex 0 8.5 0.5
      vertex 5 8.5 0
    endloop
  endfacet
  facet normal 0 1 -0
    outer loop
      vertex 0 8.5 6.5
      vertex -1 8.5 8
      vertex 3 8.5 6.5
    endloop
  endfacet
  facet normal 0 1 0
    outer loop
      vertex 0 8.5 6.5
      vertex -1 8.5 5
      vertex -1 8.5 8
    endloop
  endfacet
  facet normal 0 1 0
    outer loop
      vertex -1 8.5 5
      vertex 0 8.5 0.5
      vertex -4 8.5 5
    endloop
  endfacet
  facet normal 0 1 -0
    outer loop
      vertex 0 8.5 0.5
      vertex -1 8.5 5
      vertex 0 8.5 6.5
    endloop
  endfacet
  facet normal 0 0 -1
    outer loop
      vertex -5 -4.5 0
      vertex 5 8.5 0
      vertex 5 -4.5 0
    endloop
  endfacet
  facet normal -0 0 -1
    outer loop
      vertex 5 8.5 0
      vertex -5 -4.5 0
      vertex -5 8.5 0
    endloop
  endfacet
  facet normal 0 -1 0
    outer loop
      vertex -5 -4.5 0
      vertex -4.94975 -4.5 10
      vertex -5 -4.5 10
    endloop
  endfacet
  facet normal 0 -1 -0
    outer loop
      vertex -4.94975 -4.5 10
      vertex -5 -4.5 0
      vertex 4.94975 -4.5 10
    endloop
  endfacet
  facet normal 0 -1 0
    outer loop
      vertex 5 -4.5 0
      vertex 4.94975 -4.5 10
      vertex -5 -4.5 0
    endloop
  endfacet
  facet normal 0 -1 0
    outer loop
      vertex 4.94975 -4.5 10
      vertex 5 -4.5 0
      vertex 5 -4.5 10
    endloop
  endfacet
  facet normal 0 -1 -0
    outer loop
      vertex 0 -4.5 14.9497
      vertex -4.94975 -4.5 10
      vertex 4.94975 -4.5 10
    endloop
  endfacet
  facet normal 0.707107 -0 0.707107
    outer loop
      vertex 0 -4.5 14.9497
      vertex 4.94975 8.5 10
      vertex 0 8.5 14.9497
    endloop
  endfacet
  facet normal 0.707107 0 0.707107
    outer loop
      vertex 4.94975 8.5 10
      vertex 0 -4.5 14.9497
      vertex 4.94975 -4.5 10
    endloop
  endfacet
  facet normal -0.707107 0 0.707107
    outer loop
      vertex -2 8 12.9497
      vertex -4.94975 8.5 10
      vertex -4 8 10.9497
    endloop
  endfacet
  facet normal -0.707107 0 0.707107
    outer loop
      vertex -4.94975 8.5 10
      vertex -4 6 10.9497
      vertex -4 8 10.9497
    endloop
  endfacet
  facet normal -0.707107 0 0.707107
    outer loop
      vertex -4 6 10.9497
      vertex -4.94975 -4.5 10
      vertex -2 6 12.9497
    endloop
  endfacet
  facet normal -0.707107 0 0.707107
    outer loop
      vertex -4.94975 -4.5 10
      vertex -4 6 10.9497
      vertex -4.94975 8.5 10
    endloop
  endfacet
  facet normal -0.707107 0 0.707107
    outer loop
      vertex -4.94975 8.5 10
      vertex -2 8 12.9497
      vertex 0 8.5 14.9497
    endloop
  endfacet
  facet normal -0.707107 0 0.707107
    outer loop
      vertex -2 6 12.9497
      vertex 0 8.5 14.9497
      vertex -2 8 12.9497
    endloop
  endfacet
  facet normal -0.707107 0 0.707107
    outer loop
      vertex 0 -4.5 14.9497
      vertex -2 6 12.9497
      vertex -4.94975 -4.5 10
    endloop
  endfacet
  facet normal -0.707107 0 0.707107
    outer loop
      vertex -2 6 12.9497
      vertex 0 -4.5 14.9497
      vertex 0 8.5 14.9497
    endloop
  endfacet
  facet normal -1 0 0
    outer loop
      vertex -4 6 10.9497
      vertex -4 8 13.75
      vertex -4 8 10.9497
    endloop
  endfacet
  facet normal -1 -0 0
    outer loop
      vertex -4 8 13.75
      vertex -4 6 10.9497
      vertex -4 6 13.75
    endloop
  endfacet
  facet normal -0 0 1
    outer loop
      vertex -4 8 13.75
      vertex -2 6 13.75
      vertex -2 8 13.75
    endloop
  endfacet
  facet normal 0 0 1
    outer loop
      vertex -2 6 13.75
      vertex -4 8 13.75
      vertex -4 6 13.75
    endloop
  endfacet
  facet normal 1 -0 0
    outer loop
      vertex -2 6 13.75
      vertex -2 8 12.9497
      vertex -2 8 13.75
    endloop
  endfacet
  facet normal 1 0 0
    outer loop
      vertex -2 8 12.9497
      vertex -2 6 13.75
      vertex -2 6 12.9497
    endloop
  endfacet
  facet normal 0 1 -0
    outer loop
      vertex -2 8 12.9497
      vertex -4 8 13.75
      vertex -2 8 13.75
    endloop
  endfacet
  facet normal 0 1 0
    outer loop
      vertex -4 8 13.75
      vertex -2 8 12.9497
      vertex -4 8 10.9497
    endloop
  endfacet
  facet normal 0 -1 0
    outer loop
      vertex -4 6 13.75
      vertex -2 6 12.9497
      vertex -2 6 13.75
    endloop
  endfacet
  facet normal -0 -1 0
    outer loop
      vertex -2 6 12.9497
      vertex -4 6 13.75
      vertex -4 6 10.9497
    endloop
  endfacet
  facet normal 1 -0 0
    outer loop
      vertex 0 6.875 6.5
      vertex 0 7.125 6.375
      vertex 0 7.125 6.5
    endloop
  endfacet
  facet normal 1 0 0
    outer loop
      vertex 0 7.125 6.375
      vertex 0 6.875 6.5
      vertex 0 6.875 6.375
    endloop
  endfacet
  facet normal 1 0 0
    outer loop
      vertex 0 6.875 6.5
      vertex 0 6 6.5
      vertex 0 6.875 6.375
    endloop
  endfacet
  facet normal 1 0 0
    outer loop
      vertex 0 7.125 6.375
      vertex 0 8.5 6.5
      vertex 0 7.125 6.5
    endloop
  endfacet
  facet normal 1 0 0
    outer loop
      vertex 0 8.5 6.5
      vertex 0 7.125 6.375
      vertex 0 8.5 0.5
    endloop
  endfacet
  facet normal 1 0 0
    outer loop
      vertex 0 6 0.5
      vertex 0 7.125 6.375
      vertex 0 6.875 6.375
    endloop
  endfacet
  facet normal 1 0 0
    outer loop
      vertex 0 6 0.5
      vertex 0 6.875 6.375
      vertex 0 6 6.5
    endloop
  endfacet
  facet normal 1 0 0
    outer loop
      vertex 0 7.125 6.375
      vertex 0 6 0.5
      vertex 0 8.5 0.5
    endloop
  endfacet
  facet normal 0 0 -1
    outer loop
      vertex 0 6.875 6.5
      vertex 3 6 6.5
      vertex 0 6 6.5
    endloop
  endfacet
  facet normal 0 0 -1
    outer loop
      vertex 0 7.125 6.5
      vertex 3 6 6.5
      vertex 0 6.875 6.5
    endloop
  endfacet
  facet normal 0 0 -1
    outer loop
      vertex 3 6 6.5
      vertex 0 7.125 6.5
      vertex 3 8.5 6.5
    endloop
  endfacet
  facet normal -0 0 -1
    outer loop
      vertex 3 8.5 6.5
      vertex 0 7.125 6.5
      vertex 0 8.5 6.5
    endloop
  endfacet
  facet normal -1 0 0
    outer loop
      vertex 3 6 0.5
      vertex 3 8.5 6.5
      vertex 3 8.5 0.5
    endloop
  endfacet
  facet normal -1 -0 0
    outer loop
      vertex 3 8.5 6.5
      vertex 3 6 0.5
      vertex 3 6 6.5
    endloop
  endfacet
  facet normal -0 0 1
    outer loop
      vertex 0 8.5 0.5
      vertex 3 6 0.5
      vertex 3 8.5 0.5
    endloop
  endfacet
  facet normal 0 0 1
    outer loop
      vertex 3 6 0.5
      vertex 0 8.5 0.5
      vertex 0 6 0.5
    endloop
  endfacet
  facet normal 0 1 -0
    outer loop
      vertex 3 6 0.5
      vertex 0 6 6.5
      vertex 3 6 6.5
    endloop
  endfacet
  facet normal 0 1 0
    outer loop
      vertex 0 6 6.5
      vertex 3 6 0.5
      vertex 0 6 0.5
    endloop
  endfacet
  facet normal 1 0 0
    outer loop
      vertex -4 8.5 8
      vertex -4 7.125 6.625
      vertex -4 8.5 5
    endloop
  endfacet
  facet normal 1 -0 0
    outer loop
      vertex -4 6 8
      vertex -4 7.125 6.625
      vertex -4 8.5 8
    endloop
  endfacet
  facet normal 1 0 0
    outer loop
      vertex -4 6.875 6.625
      vertex -4 6 8
      vertex -4 6.875 6.375
    endloop
  endfacet
  facet normal 1 0 0
    outer loop
      vertex -4 7.125 6.625
      vertex -4 6 8
      vertex -4 6.875 6.625
    endloop
  endfacet
  facet normal 1 -0 0
    outer loop
      vertex -4 7.125 6.375
      vertex -4 8.5 5
      vertex -4 7.125 6.625
    endloop
  endfacet
  facet normal 1 0 0
    outer loop
      vertex -4 6 5
      vertex -4 7.125 6.375
      vertex -4 6.875 6.375
    endloop
  endfacet
  facet normal 1 0 0
    outer loop
      vertex -4 7.125 6.375
      vertex -4 6 5
      vertex -4 8.5 5
    endloop
  endfacet
  facet normal 1 0 0
    outer loop
      vertex -4 6 5
      vertex -4 6.875 6.375
      vertex -4 6 8
    endloop
  endfacet
  facet normal 0 0 -1
    outer loop
      vertex -2.375 7.125 8
      vertex -1 6 8
      vertex -2.375 6.875 8
    endloop
  endfacet
  facet normal 0 0 -1
    outer loop
      vertex -1 6 8
      vertex -2.625 6.875 8
      vertex -2.375 6.875 8
    endloop
  endfacet
  facet normal -0 0 -1
    outer loop
      vertex -2.625 6.875 8
      vertex -4 6 8
      vertex -2.625 7.125 8
    endloop
  endfacet
  facet normal 0 0 -1
    outer loop
      vertex -4 6 8
      vertex -2.625 6.875 8
      vertex -1 6 8
    endloop
  endfacet
  facet normal 0 0 -1
    outer loop
      vertex -1 6 8
      vertex -2.375 7.125 8
      vertex -1 8.5 8
    endloop
  endfacet
  facet normal 0 0 -1
    outer loop
      vertex -2.625 7.125 8
      vertex -1 8.5 8
      vertex -2.375 7.125 8
    endloop
  endfacet
  facet normal 0 0 -1
    outer loop
      vertex -4 8.5 8
      vertex -2.625 7.125 8
      vertex -4 6 8
    endloop
  endfacet
  facet normal 0 0 -1
    outer loop
      vertex -2.625 7.125 8
      vertex -4 8.5 8
      vertex -1 8.5 8
    endloop
  endfacet
  facet normal -1 0 0
    outer loop
      vertex -1 8.5 5
      vertex -1 7.125 6.375
      vertex -1 8.5 8
    endloop
  endfacet
  facet normal -1 0 0
    outer loop
      vertex -1 6 5
      vertex -1 7.125 6.375
      vertex -1 8.5 5
    endloop
  endfacet
  facet normal -1 -0 0
    outer loop
      vertex -1 6.875 6.375
      vertex -1 6 5
      vertex -1 6.875 6.625
    endloop
  endfacet
  facet normal -1 -0 0
    outer loop
      vertex -1 7.125 6.375
      vertex -1 6 5
      vertex -1 6.875 6.375
    endloop
  endfacet
  facet normal -1 0 0
    outer loop
      vertex -1 7.125 6.625
      vertex -1 8.5 8
      vertex -1 7.125 6.375
    endloop
  endfacet
  facet normal -1 0 0
    outer loop
      vertex -1 6 8
      vertex -1 7.125 6.625
      vertex -1 6.875 6.625
    endloop
  endfacet
  facet normal -1 0 0
    outer loop
      vertex -1 7.125 6.625
      vertex -1 6 8
      vertex -1 8.5 8
    endloop
  endfacet
  facet normal -1 0 0
    outer loop
      vertex -1 6 8
      vertex -1 6.875 6.625
      vertex -1 6 5
    endloop
  endfacet
  facet normal 0 0 1
    outer loop
      vertex -1 8.5 5
      vertex -2.375 7.125 5
      vertex -1 6 5
    endloop
  endfacet
  facet normal 0 0 1
    outer loop
      vertex -1 8.5 5
      vertex -2.625 7.125 5
      vertex -2.375 7.125 5
    endloop
  endfacet
  facet normal 0 0 1
    outer loop
      vertex -4 6 5
      vertex -2.625 7.125 5
      vertex -4 8.5 5
    endloop
  endfacet
  facet normal -0 0 1
    outer loop
      vertex -4 8.5 5
      vertex -2.625 7.125 5
      vertex -1 8.5 5
    endloop
  endfacet
  facet normal -0 0 1
    outer loop
      vertex -2.375 6.875 5
      vertex -1 6 5
      vertex -2.375 7.125 5
    endloop
  endfacet
  facet normal -0 0 1
    outer loop
      vertex -2.625 6.875 5
      vertex -1 6 5
      vertex -2.375 6.875 5
    endloop
  endfacet
  facet normal 0 0 1
    outer loop
      vertex -2.625 6.875 5
      vertex -4 6 5
      vertex -1 6 5
    endloop
  endfacet
  facet normal 0 0 1
    outer loop
      vertex -2.625 7.125 5
      vertex -4 6 5
      vertex -2.625 6.875 5
    endloop
  endfacet
  facet normal 0 1 -0
    outer loop
      vertex -1 6 5
      vertex -4 6 8
      vertex -1 6 8
    endloop
  endfacet
  facet normal 0 1 0
    outer loop
      vertex -4 6 8
      vertex -1 6 5
      vertex -4 6 5
    endloop
  endfacet
  facet normal -1 0 0
    outer loop
      vertex -2.625 6.875 5
      vertex -2.625 7.125 6.375
      vertex -2.625 7.125 5
    endloop
  endfacet
  facet normal -1 -0 0
    outer loop
      vertex -2.625 7.125 6.375
      vertex -2.625 6.875 5
      vertex -2.625 6.875 6.375
    endloop
  endfacet
  facet normal -1 0 0
    outer loop
      vertex -2.625 6.875 6.625
      vertex -2.625 7.125 8
      vertex -2.625 7.125 6.625
    endloop
  endfacet
  facet normal -1 -0 0
    outer loop
      vertex -2.625 7.125 8
      vertex -2.625 6.875 6.625
      vertex -2.625 6.875 8
    endloop
  endfacet
  facet normal 1 -0 0
    outer loop
      vertex -2.375 6.875 6.375
      vertex -2.375 7.125 5
      vertex -2.375 7.125 6.375
    endloop
  endfacet
  facet normal 1 0 0
    outer loop
      vertex -2.375 7.125 5
      vertex -2.375 6.875 6.375
      vertex -2.375 6.875 5
    endloop
  endfacet
  facet normal 1 -0 0
    outer loop
      vertex -2.375 6.875 8
      vertex -2.375 7.125 6.625
      vertex -2.375 7.125 8
    endloop
  endfacet
  facet normal 1 0 0
    outer loop
      vertex -2.375 7.125 6.625
      vertex -2.375 6.875 8
      vertex -2.375 6.875 6.625
    endloop
  endfacet
  facet normal 0 -1 0
    outer loop
      vertex -2.625 6.875 5
      vertex -2.375 6.875 6.375
      vertex -2.625 6.875 6.375
    endloop
  endfacet
  facet normal 0 -1 -0
    outer loop
      vertex -2.375 6.875 6.375
      vertex -2.625 6.875 5
      vertex -2.375 6.875 5
    endloop
  endfacet
  facet normal 0 -1 0
    outer loop
      vertex -2.375 6.875 6.375
      vertex -2.375 6.875 6.625
      vertex -2.625 6.875 6.625
    endloop
  endfacet
  facet normal 0 -1 0
    outer loop
      vertex -4 6.875 6.375
      vertex -2.625 6.875 6.625
      vertex -4 6.875 6.625
    endloop
  endfacet
  facet normal 0 -1 0
    outer loop
      vertex -2.625 6.875 6.375
      vertex -2.625 6.875 6.625
      vertex -4 6.875 6.375
    endloop
  endfacet
  facet normal 0 -1 0
    outer loop
      vertex -2.375 6.875 6.375
      vertex -2.625 6.875 6.625
      vertex -2.625 6.875 6.375
    endloop
  endfacet
  facet normal 0 -1 0
    outer loop
      vertex -2.375 6.875 6.625
      vertex -2.375 6.875 6.375
      vertex -1 6.875 6.625
    endloop
  endfacet
  facet normal 0 -1 -0
    outer loop
      vertex -1 6.875 6.625
      vertex -2.375 6.875 6.375
      vertex -1 6.875 6.375
    endloop
  endfacet
  facet normal 0 -1 0
    outer loop
      vertex -2.625 6.875 6.625
      vertex -2.375 6.875 8
      vertex -2.625 6.875 8
    endloop
  endfacet
  facet normal 0 -1 -0
    outer loop
      vertex -2.375 6.875 8
      vertex -2.625 6.875 6.625
      vertex -2.375 6.875 6.625
    endloop
  endfacet
  facet normal 0 1 -0
    outer loop
      vertex -2.375 7.125 6.625
      vertex -2.625 7.125 8
      vertex -2.375 7.125 8
    endloop
  endfacet
  facet normal 0 1 0
    outer loop
      vertex -2.375 7.125 6.625
      vertex -2.625 7.125 6.625
      vertex -2.625 7.125 8
    endloop
  endfacet
  facet normal 0 1 0
    outer loop
      vertex -2.375 7.125 6.375
      vertex -2.375 7.125 6.625
      vertex -1 7.125 6.625
    endloop
  endfacet
  facet normal 0 1 0
    outer loop
      vertex -2.625 7.125 6.625
      vertex -4 7.125 6.375
      vertex -4 7.125 6.625
    endloop
  endfacet
  facet normal 0 1 0
    outer loop
      vertex -2.375 7.125 6.625
      vertex -2.375 7.125 6.375
      vertex -2.625 7.125 6.625
    endloop
  endfacet
  facet normal 0 1 0
    outer loop
      vertex -2.625 7.125 6.625
      vertex -2.375 7.125 6.375
      vertex -2.625 7.125 6.375
    endloop
  endfacet
  facet normal -0 1 0
    outer loop
      vertex -2.375 7.125 6.375
      vertex -1 7.125 6.625
      vertex -1 7.125 6.375
    endloop
  endfacet
  facet normal 0 1 0
    outer loop
      vertex -2.625 7.125 6.625
      vertex -2.625 7.125 6.375
      vertex -4 7.125 6.375
    endloop
  endfacet
  facet normal 0 1 -0
    outer loop
      vertex -2.375 7.125 5
      vertex -2.625 7.125 6.375
      vertex -2.375 7.125 6.375
    endloop
  endfacet
  facet normal 0 1 0
    outer loop
      vertex -2.625 7.125 6.375
      vertex -2.375 7.125 5
      vertex -2.625 7.125 5
    endloop
  endfacet
  facet normal -3.46791e-07 0 -1
    outer loop
      vertex -4 6.875 6.375
      vertex -2.625 7.125 6.375
      vertex -2.625 6.875 6.375
    endloop
  endfacet
  facet normal -3.46791e-07 0 -1
    outer loop
      vertex -2.625 7.125 6.375
      vertex -4 6.875 6.375
      vertex -4 7.125 6.375
    endloop
  endfacet
  facet normal -3.46791e-07 0 -1
    outer loop
      vertex -2.375 6.875 6.375
      vertex -1 7.125 6.375
      vertex -1 6.875 6.375
    endloop
  endfacet
  facet normal -3.46791e-07 0 -1
    outer loop
      vertex -1 7.125 6.375
      vertex -2.375 6.875 6.375
      vertex -2.375 7.125 6.375
    endloop
  endfacet
  facet normal 3.46791e-07 0 1
    outer loop
      vertex -4 7.125 6.625
      vertex -2.625 6.875 6.625
      vertex -2.625 7.125 6.625
    endloop
  endfacet
  facet normal 3.46791e-07 0 1
    outer loop
      vertex -2.625 6.875 6.625
      vertex -4 7.125 6.625
      vertex -4 6.875 6.625
    endloop
  endfacet
  facet normal 3.46791e-07 0 1
    outer loop
      vertex -2.375 7.125 6.625
      vertex -1 6.875 6.625
      vertex -1 7.125 6.625
    endloop
  endfacet
  facet normal 3.46791e-07 0 1
    outer loop
      vertex -1 6.875 6.625
      vertex -2.375 7.125 6.625
      vertex -2.375 6.875 6.625
    endloop
  endfacet
endsolid OpenSCAD_Model
