solid OpenSCAD_Model
  facet normal -1 0 0
    outer loop
      vertex -12.5 -2.5 0
      vertex -12.5 2.5 5
      vertex -12.5 2.5 0
    endloop
  endfacet
  facet normal -1 -0 0
    outer loop
      vertex -12.5 2.5 5
      vertex -12.5 -2.5 0
      vertex -12.5 -2.5 5
    endloop
  endfacet
  facet normal -0 0 1
    outer loop
      vertex -12.5 2.5 5
      vertex 12.5 -2.5 5
      vertex 12.5 2.5 5
    endloop
  endfacet
  facet normal 0 0 1
    outer loop
      vertex 12.5 -2.5 5
      vertex -12.5 2.5 5
      vertex -12.5 -2.5 5
    endloop
  endfacet
  facet normal 1 -0 0
    outer loop
      vertex 12.5 -2.5 5
      vertex 12.5 2.5 0
      vertex 12.5 2.5 5
    endloop
  endfacet
  facet normal 1 0 0
    outer loop
      vertex 12.5 2.5 0
      vertex 12.5 -2.5 5
      vertex 12.5 -2.5 0
    endloop
  endfacet
  facet normal 0 0 -1
    outer loop
      vertex -12.5 -2.5 0
      vertex 12.5 2.5 0
      vertex 12.5 -2.5 0
    endloop
  endfacet
  facet normal -0 0 -1
    outer loop
      vertex 12.5 2.5 0
      vertex -12.5 -2.5 0
      vertex -12.5 2.5 0
    endloop
  endfacet
  facet normal 0 -1 0
    outer loop
      vertex -12.5 -2.5 0
      vertex 12.5 -2.5 5
      vertex -12.5 -2.5 5
    endloop
  endfacet
  facet normal 0 -1 -0
    outer loop
      vertex 12.5 -2.5 5
      vertex -12.5 -2.5 0
      vertex 12.5 -2.5 0
    endloop
  endfacet
  facet normal 0 1 -0
    outer loop
      vertex 12.5 2.5 0
      vertex -12.5 2.5 5
      vertex 12.5 2.5 5
    endloop
  endfacet
  facet normal 0 1 0
    outer loop
      vertex -12.5 2.5 5
      vertex 12.5 2.5 0
      vertex -12.5 2.5 0
    endloop
  endfacet
  facet normal -1 0 0
    outer loop
      vertex -12.5 11.5 0
      vertex -12.5 16.5 5
      vertex -12.5 16.5 0
    endloop
  endfacet
  facet normal -1 -0 0
    outer loop
      vertex -12.5 16.5 5
      vertex -12.5 11.5 0
      vertex -12.5 11.5 5
    endloop
  endfacet
  facet normal -0 0 1
    outer loop
      vertex -12.5 16.5 5
      vertex 12.5 11.5 5
      vertex 12.5 16.5 5
    endloop
  endfacet
  facet normal 0 0 1
    outer loop
      vertex 12.5 11.5 5
      vertex -12.5 16.5 5
      vertex -12.5 11.5 5
    endloop
  endfacet
  facet normal 1 -0 0
    outer loop
      vertex 12.5 11.5 5
      vertex 12.5 16.5 0
      vertex 12.5 16.5 5
    endloop
  endfacet
  facet normal 1 0 0
    outer loop
      vertex 12.5 16.5 0
      vertex 12.5 11.5 5
      vertex 12.5 11.5 0
    endloop
  endfacet
  facet normal 0 1 -0
    outer loop
      vertex 12.5 16.5 0
      vertex -12.5 16.5 5
      vertex 12.5 16.5 5
    endloop
  endfacet
  facet normal 0 1 0
    outer loop
      vertex -12.5 16.5 5
      vertex 12.5 16.5 0
      vertex -12.5 16.5 0
    endloop
  endfacet
  facet normal 0 0 -1
    outer loop
      vertex -12.5 11.5 0
      vertex 12.5 16.5 0
      vertex 12.5 11.5 0
    endloop
  endfacet
  facet normal -0 0 -1
    outer loop
      vertex 12.5 16.5 0
      vertex -12.5 11.5 0
      vertex -12.5 16.5 0
    endloop
  endfacet
  facet normal 0 -1 0
    outer loop
      vertex -12.5 11.5 0
      vertex 12.5 11.5 5
      vertex -12.5 11.5 5
    endloop
  endfacet
  facet normal 0 -1 -0
    outer loop
      vertex 12.5 11.5 5
      vertex -12.5 11.5 0
      vertex 12.5 11.5 0
    endloop
  endfacet
  facet normal -1 0 0
    outer loop
      vertex -12.5 4.5 0
      vertex -12.5 9.5 5
      vertex -12.5 9.5 0
    endloop
  endfacet
  facet normal -1 -0 0
    outer loop
      vertex -12.5 9.5 5
      vertex -12.5 4.5 0
      vertex -12.5 4.5 5
    endloop
  endfacet
  facet normal -0 0 1
    outer loop
      vertex -12.5 9.5 5
      vertex 12.5 4.5 5
      vertex 12.5 9.5 5
    endloop
  endfacet
  facet normal 0 0 1
    outer loop
      vertex 12.5 4.5 5
      vertex -12.5 9.5 5
      vertex -12.5 4.5 5
    endloop
  endfacet
  facet normal 1 -0 0
    outer loop
      vertex 12.5 4.5 5
      vertex 12.5 9.5 0
      vertex 12.5 9.5 5
    endloop
  endfacet
  facet normal 1 0 0
    outer loop
      vertex 12.5 9.5 0
      vertex 12.5 4.5 5
      vertex 12.5 4.5 0
    endloop
  endfacet
  facet normal 0 0 -1
    outer loop
      vertex -12.5 4.5 0
      vertex 12.5 9.5 0
      vertex 12.5 4.5 0
    endloop
  endfacet
  facet normal -0 0 -1
    outer loop
      vertex 12.5 9.5 0
      vertex -12.5 4.5 0
      vertex -12.5 9.5 0
    endloop
  endfacet
  facet normal 0 -1 0
    outer loop
      vertex -12.5 4.5 0
      vertex 12.5 4.5 5
      vertex -12.5 4.5 5
    endloop
  endfacet
  facet normal 0 -1 -0
    outer loop
      vertex 12.5 4.5 5
      vertex -12.5 4.5 0
      vertex 12.5 4.5 0
    endloop
  endfacet
  facet normal 0 1 -0
    outer loop
      vertex 12.5 9.5 0
      vertex -12.5 9.5 5
      vertex 12.5 9.5 5
    endloop
  endfacet
  facet normal 0 1 0
    outer loop
      vertex -12.5 9.5 5
      vertex 12.5 9.5 0
      vertex -12.5 9.5 0
    endloop
  endfacet
  facet normal -1 0 0
    outer loop
      vertex -12.5 -16.5 0
      vertex -12.5 -11.5 5
      vertex -12.5 -11.5 0
    endloop
  endfacet
  facet normal -1 -0 0
    outer loop
      vertex -12.5 -11.5 5
      vertex -12.5 -16.5 0
      vertex -12.5 -16.5 5
    endloop
  endfacet
  facet normal -0 0 1
    outer loop
      vertex -12.5 -11.5 5
      vertex 12.5 -16.5 5
      vertex 12.5 -11.5 5
    endloop
  endfacet
  facet normal 0 0 1
    outer loop
      vertex 12.5 -16.5 5
      vertex -12.5 -11.5 5
      vertex -12.5 -16.5 5
    endloop
  endfacet
  facet normal 1 -0 0
    outer loop
      vertex 12.5 -16.5 5
      vertex 12.5 -11.5 0
      vertex 12.5 -11.5 5
    endloop
  endfacet
  facet normal 1 0 0
    outer loop
      vertex 12.5 -11.5 0
      vertex 12.5 -16.5 5
      vertex 12.5 -16.5 0
    endloop
  endfacet
  facet normal 0 1 -0
    outer loop
      vertex 12.5 -11.5 0
      vertex -12.5 -11.5 5
      vertex 12.5 -11.5 5
    endloop
  endfacet
  facet normal 0 1 0
    outer loop
      vertex -12.5 -11.5 5
      vertex 12.5 -11.5 0
      vertex -12.5 -11.5 0
    endloop
  endfacet
  facet normal 0 0 -1
    outer loop
      vertex -12.5 -16.5 0
      vertex 12.5 -11.5 0
      vertex 12.5 -16.5 0
    endloop
  endfacet
  facet normal -0 0 -1
    outer loop
      vertex 12.5 -11.5 0
      vertex -12.5 -16.5 0
      vertex -12.5 -11.5 0
    endloop
  endfacet
  facet normal 0 -1 0
    outer loop
      vertex -12.5 -16.5 0
      vertex 12.5 -16.5 5
      vertex -12.5 -16.5 5
    endloop
  endfacet
  facet normal 0 -1 -0
    outer loop
      vertex 12.5 -16.5 5
      vertex -12.5 -16.5 0
      vertex 12.5 -16.5 0
    endloop
  endfacet
  facet normal -1 0 0
    outer loop
      vertex -12.5 -9.5 0
      vertex -12.5 -4.5 5
      vertex -12.5 -4.5 0
    endloop
  endfacet
  facet normal -1 -0 0
    outer loop
      vertex -12.5 -4.5 5
      vertex -12.5 -9.5 0
      vertex -12.5 -9.5 5
    endloop
  endfacet
  facet normal -0 0 1
    outer loop
      vertex -12.5 -4.5 5
      vertex 12.5 -9.5 5
      vertex 12.5 -4.5 5
    endloop
  endfacet
  facet normal 0 0 1
    outer loop
      vertex 12.5 -9.5 5
      vertex -12.5 -4.5 5
      vertex -12.5 -9.5 5
    endloop
  endfacet
  facet normal 1 -0 0
    outer loop
      vertex 12.5 -9.5 5
      vertex 12.5 -4.5 0
      vertex 12.5 -4.5 5
    endloop
  endfacet
  facet normal 1 0 0
    outer loop
      vertex 12.5 -4.5 0
      vertex 12.5 -9.5 5
      vertex 12.5 -9.5 0
    endloop
  endfacet
  facet normal 0 0 -1
    outer loop
      vertex -12.5 -9.5 0
      vertex 12.5 -4.5 0
      vertex 12.5 -9.5 0
    endloop
  endfacet
  facet normal -0 0 -1
    outer loop
      vertex 12.5 -4.5 0
      vertex -12.5 -9.5 0
      vertex -12.5 -4.5 0
    endloop
  endfacet
  facet normal 0 -1 0
    outer loop
      vertex -12.5 -9.5 0
      vertex 12.5 -9.5 5
      vertex -12.5 -9.5 5
    endloop
  endfacet
  facet normal 0 -1 -0
    outer loop
      vertex 12.5 -9.5 5
      vertex -12.5 -9.5 0
      vertex 12.5 -9.5 0
    endloop
  endfacet
  facet normal 0 1 -0
    outer loop
      vertex 12.5 -4.5 0
      vertex -12.5 -4.5 5
      vertex 12.5 -4.5 5
    endloop
  endfacet
  facet normal 0 1 0
    outer loop
      vertex -12.5 -4.5 5
      vertex 12.5 -4.5 0
      vertex -12.5 -4.5 0
    endloop
  endfacet
endsolid OpenSCAD_Model
